<svg xmlns="http://www.w3.org/2000/svg" width="1000" height="500" viewBox="0 0 1000 500">
  <rect width="1000" height="500" fill="#f6fbf8"/>
  <text x="500" y="42" text-anchor="middle" font-family="Arial" font-size="28" font-weight="700" fill="#0f3b5f">Register Replication (Simple View)</text>

  <rect x="70" y="120" width="230" height="120" rx="10" fill="#ffffff" stroke="#b04b4b" stroke-width="3"/>
  <text x="185" y="185" text-anchor="middle" font-family="Arial" font-size="28" font-weight="700" fill="#8f3535">R0</text>
  <line x1="300" y1="180" x2="430" y2="120" stroke="#b04b4b" stroke-width="3"/>
  <line x1="300" y1="180" x2="430" y2="150" stroke="#b04b4b" stroke-width="3"/>
  <line x1="300" y1="180" x2="430" y2="180" stroke="#b04b4b" stroke-width="3"/>
  <line x1="300" y1="180" x2="430" y2="210" stroke="#b04b4b" stroke-width="3"/>
  <line x1="300" y1="180" x2="430" y2="240" stroke="#b04b4b" stroke-width="3"/>
  <line x1="300" y1="180" x2="430" y2="270" stroke="#b04b4b" stroke-width="3"/>
  <text x="240" y="270" font-family="Arial" font-size="17" fill="#8f3535">high fanout</text>

  <line x1="470" y1="190" x2="560" y2="190" stroke="#0c7f72" stroke-width="6"/>
  <polygon points="560,190 536,176 536,204" fill="#0c7f72"/>

  <rect x="610" y="100" width="150" height="90" rx="10" fill="#ffffff" stroke="#1b7f4f" stroke-width="3"/>
  <text x="685" y="155" text-anchor="middle" font-family="Arial" font-size="24" font-weight="700" fill="#1b7f4f">R0_a</text>
  <rect x="610" y="230" width="150" height="90" rx="10" fill="#ffffff" stroke="#1b7f4f" stroke-width="3"/>
  <text x="685" y="285" text-anchor="middle" font-family="Arial" font-size="24" font-weight="700" fill="#1b7f4f">R0_b</text>

  <line x1="760" y1="145" x2="910" y2="110" stroke="#1b7f4f" stroke-width="3"/>
  <line x1="760" y1="145" x2="910" y2="145" stroke="#1b7f4f" stroke-width="3"/>
  <line x1="760" y1="145" x2="910" y2="180" stroke="#1b7f4f" stroke-width="3"/>
  <line x1="760" y1="275" x2="910" y2="240" stroke="#1b7f4f" stroke-width="3"/>
  <line x1="760" y1="275" x2="910" y2="275" stroke="#1b7f4f" stroke-width="3"/>
  <line x1="760" y1="275" x2="910" y2="310" stroke="#1b7f4f" stroke-width="3"/>

  <rect x="70" y="390" width="860" height="75" rx="10" fill="#e8f4ff" stroke="#7fb2dd" stroke-width="2"/>
  <text x="500" y="436" text-anchor="middle" font-family="Arial" font-size="20" fill="#0f3b5f">Split loads across copies to reduce fanout and improve slew.</text>
</svg>
